<?xml version="1.0" encoding="iso-8859-1" standalone="no"?> 
<?xml-stylesheet href="latex-29195wy2.css" type="text/css"?> 
<svg xmlns="http://www.w3.org/2000/svg" xmlns:xlink="http://www.w3.org/1999/xlink" width="219.56921pt" height="156.60826pt" viewBox="-109.7846 -113.3205 219.56921 156.60826 "> 
<g transform="translate(0, 43.28777 ) scale(1,-1) translate(0,113.3205 )"> 
                                 <g> 
 <g stroke="rgb(0.0%,0.0%,0.0%)"> 
 <g fill="rgb(0.0%,0.0%,0.0%)"> 
 <g stroke-width="0.4pt"> 
 <g> 
 <g> 
 <g fill="rgb(60.00061%,100.0%,60.00061%)"> 
 <g> 
 <g fill="rgb(60.00061%,100.0%,60.00061%)"> 
 <path d=" M  -109.58461 -27.76227 h  20.00003 v  10.0 h  -20.00003 Z  " /> 
 </g> 
 </g> 
 <g> 
 <g transform="matrix(1.0,0.0,0.0,1.0,-99.5846,-22.76227)"> 
 <g fill="rgb(0.0%,0.0%,0.0%)"> 
 <text style="stroke:none" transform="scale(1,-1) translate(0.0,0)" text-anchor="middle"  font-size="10"> 
</text> 
</g> 
 </g> 
 </g> 
 </g> 
 </g> 
 <g> 
 <g fill="rgb(60.00061%,100.0%,60.00061%)"> 
 <g> 
 <g fill="rgb(60.00061%,100.0%,60.00061%)"> 
 <path d=" M  -109.58461 -16.38092 h  20.00003 v  10.0 h  -20.00003 Z  " /> 
 </g> 
 </g> 
 <g> 
 <g transform="matrix(1.0,0.0,0.0,1.0,-99.5846,-11.38092)"> 
 <g fill="rgb(0.0%,0.0%,0.0%)"> 
 <text style="stroke:none" transform="scale(1,-1) translate(0.0,0)" text-anchor="middle"  font-size="10"> 
</text> 
</g> 
 </g> 
 </g> 
 </g> 
 </g> 
 <g> 
 <g fill="rgb(60.00061%,100.0%,60.00061%)"> 
 <g> 
 <g fill="rgb(60.00061%,100.0%,60.00061%)"> 
 <path d=" M  -109.58461 -5.0 h  20.00003 v  10.0 h  -20.00003 Z  " /> 
 </g> 
 </g> 
 <g> 
 <g transform="matrix(1.0,0.0,0.0,1.0,-99.5846,0.0)"> 
 <g fill="rgb(0.0%,0.0%,0.0%)"> 
 <text style="stroke:none" transform="scale(1,-1) translate(0.0,0)" text-anchor="middle"  font-size="10"> 
</text> 
</g> 
 </g> 
 </g> 
 </g> 
 </g> 
 <g> 
 <g fill="rgb(60.00061%,100.0%,60.00061%)"> 
 <g> 
 <g fill="rgb(60.00061%,100.0%,60.00061%)"> 
 <path d=" M  -109.58461 6.38092 h  20.00003 v  10.0 h  -20.00003 Z  " /> 
 </g> 
 </g> 
 <g> 
 <g transform="matrix(1.0,0.0,0.0,1.0,-99.5846,11.38092)"> 
 <g fill="rgb(0.0%,0.0%,0.0%)"> 
 <text style="stroke:none" transform="scale(1,-1) translate(0.0,0)" text-anchor="middle"  font-size="10"> 
</text> 
</g> 
 </g> 
 </g> 
 </g> 
 </g> 
 <g> 
 <g fill="rgb(60.00061%,100.0%,60.00061%)"> 
 <g> 
 <g fill="rgb(60.00061%,100.0%,60.00061%)"> 
 <path d=" M  -109.58461 17.76227 h  20.00003 v  10.0 h  -20.00003 Z  " /> 
 </g> 
 </g> 
 <g> 
 <g transform="matrix(1.0,0.0,0.0,1.0,-99.5846,22.76227)"> 
 <g fill="rgb(0.0%,0.0%,0.0%)"> 
 <text style="stroke:none" transform="scale(1,-1) translate(0.0,0)" text-anchor="middle"  font-size="10"> 
</text> 
</g> 
 </g> 
 </g> 
 </g> 
 </g> 
 <g> 
 <g fill="rgb(60.00061%,100.0%,60.00061%)"> 
 <g> 
 <g fill="rgb(60.00061%,100.0%,60.00061%)"> 
 <path d=" M  -81.13187 -27.76227 h  20.00003 v  10.0 h  -20.00003 Z  " /> 
 </g> 
 </g> 
 <g> 
 <g transform="matrix(1.0,0.0,0.0,1.0,-71.13185,-22.76227)"> 
 <g fill="rgb(0.0%,0.0%,0.0%)"> 
 <text style="stroke:none" transform="scale(1,-1) translate(0.0,0)" text-anchor="middle"  font-size="10"> 
</text> 
</g> 
 </g> 
 </g> 
 </g> 
 </g> 
 <g> 
 <g fill="rgb(60.00061%,100.0%,60.00061%)"> 
 <g> 
 <g fill="rgb(60.00061%,100.0%,60.00061%)"> 
 <path d=" M  -81.13187 -16.38092 h  20.00003 v  10.0 h  -20.00003 Z  " /> 
 </g> 
 </g> 
 <g> 
 <g transform="matrix(1.0,0.0,0.0,1.0,-71.13185,-11.38092)"> 
 <g fill="rgb(0.0%,0.0%,0.0%)"> 
 <text style="stroke:none" transform="scale(1,-1) translate(0.0,0)" text-anchor="middle"  font-size="10"> 
</text> 
</g> 
 </g> 
 </g> 
 </g> 
 </g> 
 <g> 
 <g fill="rgb(60.00061%,100.0%,60.00061%)"> 
 <g> 
 <g fill="rgb(60.00061%,100.0%,60.00061%)"> 
 <path d=" M  -81.13187 -5.0 h  20.00003 v  10.0 h  -20.00003 Z  " /> 
 </g> 
 </g> 
 <g> 
 <g transform="matrix(1.0,0.0,0.0,1.0,-71.13185,0.0)"> 
 <g fill="rgb(0.0%,0.0%,0.0%)"> 
 <text style="stroke:none" transform="scale(1,-1) translate(0.0,0)" text-anchor="middle"  font-size="10"> 
</text> 
</g> 
 </g> 
 </g> 
 </g> 
 </g> 
 <g> 
 <g fill="rgb(60.00061%,100.0%,60.00061%)"> 
 <g> 
 <g fill="rgb(60.00061%,100.0%,60.00061%)"> 
 <path d=" M  -81.13187 6.38092 h  20.00003 v  10.0 h  -20.00003 Z  " /> 
 </g> 
 </g> 
 <g> 
 <g transform="matrix(1.0,0.0,0.0,1.0,-71.13185,11.38092)"> 
 <g fill="rgb(0.0%,0.0%,0.0%)"> 
 <text style="stroke:none" transform="scale(1,-1) translate(0.0,0)" text-anchor="middle"  font-size="10"> 
</text> 
</g> 
 </g> 
 </g> 
 </g> 
 </g> 
 <g> 
 <g fill="rgb(60.00061%,100.0%,60.00061%)"> 
 <g> 
 <g fill="rgb(60.00061%,100.0%,60.00061%)"> 
 <path d=" M  -81.13187 17.76227 h  20.00003 v  10.0 h  -20.00003 Z  " /> 
 </g> 
 </g> 
 <g> 
 <g transform="matrix(1.0,0.0,0.0,1.0,-71.13185,22.76227)"> 
 <g fill="rgb(0.0%,0.0%,0.0%)"> 
 <text style="stroke:none" transform="scale(1,-1) translate(0.0,0)" text-anchor="middle"  font-size="10"> 
</text> 
</g> 
 </g> 
 </g> 
 </g> 
 </g> 
 <g> 
 <g fill="rgb(60.00061%,100.0%,60.00061%)"> 
 <g> 
 <g fill="rgb(60.00061%,100.0%,60.00061%)"> 
 <path d=" M  -24.22638 -27.76227 h  20.00003 v  10.0 h  -20.00003 Z  " /> 
 </g> 
 </g> 
 <g> 
 <g transform="matrix(1.0,0.0,0.0,1.0,-14.22636,-22.76227)"> 
 <g fill="rgb(0.0%,0.0%,0.0%)"> 
 <text style="stroke:none" transform="scale(1,-1) translate(0.0,0)" text-anchor="middle"  font-size="10"> 
</text> 
</g> 
 </g> 
 </g> 
 </g> 
 </g> 
 <g> 
 <g fill="rgb(60.00061%,100.0%,60.00061%)"> 
 <g> 
 <g fill="rgb(60.00061%,100.0%,60.00061%)"> 
 <path d=" M  -24.22638 -16.38092 h  20.00003 v  10.0 h  -20.00003 Z  " /> 
 </g> 
 </g> 
 <g> 
 <g transform="matrix(1.0,0.0,0.0,1.0,-14.22636,-11.38092)"> 
 <g fill="rgb(0.0%,0.0%,0.0%)"> 
 <text style="stroke:none" transform="scale(1,-1) translate(0.0,0)" text-anchor="middle"  font-size="10"> 
</text> 
</g> 
 </g> 
 </g> 
 </g> 
 </g> 
 <g> 
 <g fill="rgb(60.00061%,100.0%,60.00061%)"> 
 <g> 
 <g fill="rgb(60.00061%,100.0%,60.00061%)"> 
 <path d=" M  -24.22638 -5.0 h  20.00003 v  10.0 h  -20.00003 Z  " /> 
 </g> 
 </g> 
 <g> 
 <g transform="matrix(1.0,0.0,0.0,1.0,-14.22636,0.0)"> 
 <g fill="rgb(0.0%,0.0%,0.0%)"> 
 <text style="stroke:none" transform="scale(1,-1) translate(0.0,0)" text-anchor="middle"  font-size="10"> 
</text> 
</g> 
 </g> 
 </g> 
 </g> 
 </g> 
 <g> 
 <g fill="rgb(60.00061%,100.0%,60.00061%)"> 
 <g> 
 <g fill="rgb(60.00061%,100.0%,60.00061%)"> 
 <path d=" M  -24.22638 6.38092 h  20.00003 v  10.0 h  -20.00003 Z  " /> 
 </g> 
 </g> 
 <g> 
 <g transform="matrix(1.0,0.0,0.0,1.0,-14.22636,11.38092)"> 
 <g fill="rgb(0.0%,0.0%,0.0%)"> 
 <text style="stroke:none" transform="scale(1,-1) translate(0.0,0)" text-anchor="middle"  font-size="10"> 
</text> 
</g> 
 </g> 
 </g> 
 </g> 
 </g> 
 <g> 
 <g fill="rgb(60.00061%,100.0%,60.00061%)"> 
 <g> 
 <g fill="rgb(60.00061%,100.0%,60.00061%)"> 
 <path d=" M  -24.22638 17.76227 h  20.00003 v  10.0 h  -20.00003 Z  " /> 
 </g> 
 </g> 
 <g> 
 <g transform="matrix(1.0,0.0,0.0,1.0,-14.22636,22.76227)"> 
 <g fill="rgb(0.0%,0.0%,0.0%)"> 
 <text style="stroke:none" transform="scale(1,-1) translate(0.0,0)" text-anchor="middle"  font-size="10"> 
</text> 
</g> 
 </g> 
 </g> 
 </g> 
 </g> 
 <g> 
 <g fill="rgb(60.00061%,100.0%,60.00061%)"> 
 <g> 
 <g fill="rgb(60.00061%,100.0%,60.00061%)"> 
 <path d=" M  4.22635 -27.76227 h  20.00003 v  10.0 h  -20.00003 Z  " /> 
 </g> 
 </g> 
 <g> 
 <g transform="matrix(1.0,0.0,0.0,1.0,14.22636,-22.76227)"> 
 <g fill="rgb(0.0%,0.0%,0.0%)"> 
 <text style="stroke:none" transform="scale(1,-1) translate(0.0,0)" text-anchor="middle"  font-size="10"> 
</text> 
</g> 
 </g> 
 </g> 
 </g> 
 </g> 
 <g> 
 <g fill="rgb(60.00061%,100.0%,60.00061%)"> 
 <g> 
 <g fill="rgb(60.00061%,100.0%,60.00061%)"> 
 <path d=" M  4.22635 -16.38092 h  20.00003 v  10.0 h  -20.00003 Z  " /> 
 </g> 
 </g> 
 <g> 
 <g transform="matrix(1.0,0.0,0.0,1.0,14.22636,-11.38092)"> 
 <g fill="rgb(0.0%,0.0%,0.0%)"> 
 <text style="stroke:none" transform="scale(1,-1) translate(0.0,0)" text-anchor="middle"  font-size="10"> 
</text> 
</g> 
 </g> 
 </g> 
 </g> 
 </g> 
 <g> 
 <g fill="rgb(60.00061%,100.0%,60.00061%)"> 
 <g> 
 <g fill="rgb(60.00061%,100.0%,60.00061%)"> 
 <path d=" M  4.22635 -5.0 h  20.00003 v  10.0 h  -20.00003 Z  " /> 
 </g> 
 </g> 
 <g> 
 <g transform="matrix(1.0,0.0,0.0,1.0,14.22636,0.0)"> 
 <g fill="rgb(0.0%,0.0%,0.0%)"> 
 <text style="stroke:none" transform="scale(1,-1) translate(0.0,0)" text-anchor="middle"  font-size="10"> 
</text> 
</g> 
 </g> 
 </g> 
 </g> 
 </g> 
 <g> 
 <g fill="rgb(60.00061%,100.0%,60.00061%)"> 
 <g> 
 <g fill="rgb(60.00061%,100.0%,60.00061%)"> 
 <path d=" M  4.22635 6.38092 h  20.00003 v  10.0 h  -20.00003 Z  " /> 
 </g> 
 </g> 
 <g> 
 <g transform="matrix(1.0,0.0,0.0,1.0,14.22636,11.38092)"> 
 <g fill="rgb(0.0%,0.0%,0.0%)"> 
 <text style="stroke:none" transform="scale(1,-1) translate(0.0,0)" text-anchor="middle"  font-size="10"> 
</text> 
</g> 
 </g> 
 </g> 
 </g> 
 </g> 
 <g> 
 <g fill="rgb(60.00061%,100.0%,60.00061%)"> 
 <g> 
 <g fill="rgb(60.00061%,100.0%,60.00061%)"> 
 <path d=" M  4.22635 17.76227 h  20.00003 v  10.0 h  -20.00003 Z  " /> 
 </g> 
 </g> 
 <g> 
 <g transform="matrix(1.0,0.0,0.0,1.0,14.22636,22.76227)"> 
 <g fill="rgb(0.0%,0.0%,0.0%)"> 
 <text style="stroke:none" transform="scale(1,-1) translate(0.0,0)" text-anchor="middle"  font-size="10"> 
</text> 
</g> 
 </g> 
 </g> 
 </g> 
 </g> 
 <g> 
 <g fill="rgb(60.00061%,100.0%,60.00061%)"> 
 <g> 
 <g fill="rgb(60.00061%,100.0%,60.00061%)"> 
 <path d=" M  61.13184 -27.76227 h  20.00003 v  10.0 h  -20.00003 Z  " /> 
 </g> 
 </g> 
 <g> 
 <g transform="matrix(1.0,0.0,0.0,1.0,71.13185,-22.76227)"> 
 <g fill="rgb(0.0%,0.0%,0.0%)"> 
 <text style="stroke:none" transform="scale(1,-1) translate(0.0,0)" text-anchor="middle"  font-size="10"> 
</text> 
</g> 
 </g> 
 </g> 
 </g> 
 </g> 
 <g> 
 <g fill="rgb(60.00061%,100.0%,60.00061%)"> 
 <g> 
 <g fill="rgb(60.00061%,100.0%,60.00061%)"> 
 <path d=" M  61.13184 -16.38092 h  20.00003 v  10.0 h  -20.00003 Z  " /> 
 </g> 
 </g> 
 <g> 
 <g transform="matrix(1.0,0.0,0.0,1.0,71.13185,-11.38092)"> 
 <g fill="rgb(0.0%,0.0%,0.0%)"> 
 <text style="stroke:none" transform="scale(1,-1) translate(0.0,0)" text-anchor="middle"  font-size="10"> 
</text> 
</g> 
 </g> 
 </g> 
 </g> 
 </g> 
 <g> 
 <g fill="rgb(60.00061%,100.0%,60.00061%)"> 
 <g> 
 <g fill="rgb(60.00061%,100.0%,60.00061%)"> 
 <path d=" M  61.13184 -5.0 h  20.00003 v  10.0 h  -20.00003 Z  " /> 
 </g> 
 </g> 
 <g> 
 <g transform="matrix(1.0,0.0,0.0,1.0,71.13185,0.0)"> 
 <g fill="rgb(0.0%,0.0%,0.0%)"> 
 <text style="stroke:none" transform="scale(1,-1) translate(0.0,0)" text-anchor="middle"  font-size="10"> 
</text> 
</g> 
 </g> 
 </g> 
 </g> 
 </g> 
 <g> 
 <g fill="rgb(60.00061%,100.0%,60.00061%)"> 
 <g> 
 <g fill="rgb(60.00061%,100.0%,60.00061%)"> 
 <path d=" M  61.13184 6.38092 h  20.00003 v  10.0 h  -20.00003 Z  " /> 
 </g> 
 </g> 
 <g> 
 <g transform="matrix(1.0,0.0,0.0,1.0,71.13185,11.38092)"> 
 <g fill="rgb(0.0%,0.0%,0.0%)"> 
 <text style="stroke:none" transform="scale(1,-1) translate(0.0,0)" text-anchor="middle"  font-size="10"> 
</text> 
</g> 
 </g> 
 </g> 
 </g> 
 </g> 
 <g> 
 <g fill="rgb(60.00061%,100.0%,60.00061%)"> 
 <g> 
 <g fill="rgb(60.00061%,100.0%,60.00061%)"> 
 <path d=" M  61.13184 17.76227 h  20.00003 v  10.0 h  -20.00003 Z  " /> 
 </g> 
 </g> 
 <g> 
 <g transform="matrix(1.0,0.0,0.0,1.0,71.13185,22.76227)"> 
 <g fill="rgb(0.0%,0.0%,0.0%)"> 
 <text style="stroke:none" transform="scale(1,-1) translate(0.0,0)" text-anchor="middle"  font-size="10"> 
</text> 
</g> 
 </g> 
 </g> 
 </g> 
 </g> 
 <g> 
 <g fill="rgb(60.00061%,100.0%,60.00061%)"> 
 <g> 
 <g fill="rgb(60.00061%,100.0%,60.00061%)"> 
 <path d=" M  89.58458 -27.76227 h  20.00003 v  10.0 h  -20.00003 Z  " /> 
 </g> 
 </g> 
 <g> 
 <g transform="matrix(1.0,0.0,0.0,1.0,99.5846,-22.76227)"> 
 <g fill="rgb(0.0%,0.0%,0.0%)"> 
 <text style="stroke:none" transform="scale(1,-1) translate(0.0,0)" text-anchor="middle"  font-size="10"> 
</text> 
</g> 
 </g> 
 </g> 
 </g> 
 </g> 
 <g> 
 <g fill="rgb(60.00061%,100.0%,60.00061%)"> 
 <g> 
 <g fill="rgb(60.00061%,100.0%,60.00061%)"> 
 <path d=" M  89.58458 -16.38092 h  20.00003 v  10.0 h  -20.00003 Z  " /> 
 </g> 
 </g> 
 <g> 
 <g transform="matrix(1.0,0.0,0.0,1.0,99.5846,-11.38092)"> 
 <g fill="rgb(0.0%,0.0%,0.0%)"> 
 <text style="stroke:none" transform="scale(1,-1) translate(0.0,0)" text-anchor="middle"  font-size="10"> 
</text> 
</g> 
 </g> 
 </g> 
 </g> 
 </g> 
 <g> 
 <g fill="rgb(60.00061%,100.0%,60.00061%)"> 
 <g> 
 <g fill="rgb(60.00061%,100.0%,60.00061%)"> 
 <path d=" M  89.58458 -5.0 h  20.00003 v  10.0 h  -20.00003 Z  " /> 
 </g> 
 </g> 
 <g> 
 <g transform="matrix(1.0,0.0,0.0,1.0,99.5846,0.0)"> 
 <g fill="rgb(0.0%,0.0%,0.0%)"> 
 <text style="stroke:none" transform="scale(1,-1) translate(0.0,0)" text-anchor="middle"  font-size="10"> 
</text> 
</g> 
 </g> 
 </g> 
 </g> 
 </g> 
 <g> 
 <g fill="rgb(60.00061%,100.0%,60.00061%)"> 
 <g> 
 <g fill="rgb(60.00061%,100.0%,60.00061%)"> 
 <path d=" M  89.58458 6.38092 h  20.00003 v  10.0 h  -20.00003 Z  " /> 
 </g> 
 </g> 
 <g> 
 <g transform="matrix(1.0,0.0,0.0,1.0,99.5846,11.38092)"> 
 <g fill="rgb(0.0%,0.0%,0.0%)"> 
 <text style="stroke:none" transform="scale(1,-1) translate(0.0,0)" text-anchor="middle"  font-size="10"> 
</text> 
</g> 
 </g> 
 </g> 
 </g> 
 </g> 
 <g> 
 <g fill="rgb(60.00061%,100.0%,60.00061%)"> 
 <g> 
 <g fill="rgb(60.00061%,100.0%,60.00061%)"> 
 <path d=" M  89.58458 17.76227 h  20.00003 v  10.0 h  -20.00003 Z  " /> 
 </g> 
 </g> 
 <g> 
 <g transform="matrix(1.0,0.0,0.0,1.0,99.5846,22.76227)"> 
 <g fill="rgb(0.0%,0.0%,0.0%)"> 
 <text style="stroke:none" transform="scale(1,-1) translate(0.0,0)" text-anchor="middle"  font-size="10"> 
</text> 
</g> 
 </g> 
 </g> 
 </g> 
 </g> 
 <g> 
 <g> 
 <g transform="matrix(1.0,0.0,0.0,1.0,-96.74715,33.12148)"> 
 <g fill="rgb(0.0%,0.0%,0.0%)"> 
 <text style="stroke:none" transform="scale(1,-1) translate(11.38892,0)" text-anchor="middle"  font-size="10"> 
Copy</text> 
</g> 
 </g> 
 </g> 
 </g> 
 <g> 
 <g fill="rgb(100.0%,100.0%,80.0003%)"> 
 <g> 
 <g fill="rgb(100.0%,100.0%,80.0003%)"> 
 <path d=" M  -109.58461 6.38092 h  20.00003 v  10.0 h  -20.00003 Z  " /> 
 </g> 
 </g> 
 <g> 
 <g transform="matrix(1.0,0.0,0.0,1.0,-99.5846,11.38092)"> 
 <g fill="rgb(0.0%,0.0%,0.0%)"> 
 <text style="stroke:none" transform="scale(1,-1) translate(0.0,0)" text-anchor="middle"  font-size="10"> 
</text> 
</g> 
 </g> 
 </g> 
 </g> 
 </g> 
 <g> 
 <g fill="rgb(39.99939%,39.99939%,100.0%)"> 
 <g> 
 <g fill="rgb(39.99939%,39.99939%,100.0%)"> 
 <path d=" M  -109.58461 -16.38092 h  20.00003 v  10.0 h  -20.00003 Z  " /> 
 </g> 
 </g> 
 <g> 
 <g transform="matrix(1.0,0.0,0.0,1.0,-99.5846,-11.38092)"> 
 <g fill="rgb(0.0%,0.0%,0.0%)"> 
 <text style="stroke:none" transform="scale(1,-1) translate(0.0,0)" text-anchor="middle"  font-size="10"> 
</text> 
</g> 
 </g> 
 </g> 
 </g> 
 </g> 
 <g> 
 <g fill="rgb(100.0%,100.0%,80.0003%)"> 
 <g> 
 <g fill="rgb(100.0%,100.0%,80.0003%)"> 
 <path d=" M  -81.13187 6.38092 h  20.00003 v  10.0 h  -20.00003 Z  " /> 
 </g> 
 </g> 
 <g> 
 <g transform="matrix(1.0,0.0,0.0,1.0,-71.13185,11.38092)"> 
 <g fill="rgb(0.0%,0.0%,0.0%)"> 
 <text style="stroke:none" transform="scale(1,-1) translate(0.0,0)" text-anchor="middle"  font-size="10"> 
</text> 
</g> 
 </g> 
 </g> 
 </g> 
 </g> 
 <g> 
 <g fill="rgb(39.99939%,39.99939%,100.0%)"> 
 <g> 
 <g fill="rgb(39.99939%,39.99939%,100.0%)"> 
 <path d=" M  -81.13187 -16.38092 h  20.00003 v  10.0 h  -20.00003 Z  " /> 
 </g> 
 </g> 
 <g> 
 <g transform="matrix(1.0,0.0,0.0,1.0,-71.13185,-11.38092)"> 
 <g fill="rgb(0.0%,0.0%,0.0%)"> 
 <text style="stroke:none" transform="scale(1,-1) translate(0.0,0)" text-anchor="middle"  font-size="10"> 
</text> 
</g> 
 </g> 
 </g> 
 </g> 
 </g> 
 <g> 
 <g fill="rgb(100.0%,100.0%,80.0003%)"> 
 <g> 
 <g fill="rgb(100.0%,100.0%,80.0003%)"> 
 <path d=" M  -81.13187 -27.76227 h  20.00003 v  10.0 h  -20.00003 Z  " /> 
 </g> 
 </g> 
 <g> 
 <g transform="matrix(1.0,0.0,0.0,1.0,-71.13185,-22.76227)"> 
 <g fill="rgb(0.0%,0.0%,0.0%)"> 
 <text style="stroke:none" transform="scale(1,-1) translate(0.0,0)" text-anchor="middle"  font-size="10"> 
</text> 
</g> 
 </g> 
 </g> 
 </g> 
 </g> 
 <g> 
 <g fill="rgb(60.00061%,100.0%,60.00061%)"> 
 <g> 
 <g fill="rgb(60.00061%,100.0%,60.00061%)"> 
 <path d=" M  -81.13187 -39.1432 h  20.00003 v  10.0 h  -20.00003 Z  " /> 
 </g> 
 </g> 
 <g> 
 <g transform="matrix(1.0,0.0,0.0,1.0,-71.13185,-34.1432)"> 
 <g fill="rgb(0.0%,0.0%,0.0%)"> 
 <text style="stroke:none" transform="scale(1,-1) translate(0.0,0)" text-anchor="middle"  font-size="10"> 
</text> 
</g> 
 </g> 
 </g> 
 </g> 
 </g> 
 <g> 
 <g> 
 <g transform="matrix(1.0,0.0,0.0,1.0,-13.81946,32.0937)"> 
 <g fill="rgb(0.0%,0.0%,0.0%)"> 
 <text style="stroke:none" transform="scale(1,-1) translate(13.81946,0)" text-anchor="middle"  font-size="10"> 
Delete</text> 
</g> 
 </g> 
 </g> 
 </g> 
 <g> 
 <g fill="rgb(100.0%,60.00061%,60.00061%)"> 
 <g> 
 <g fill="rgb(100.0%,60.00061%,60.00061%)"> 
 <path d=" M  -24.22638 -5.0 h  20.00003 v  10.0 h  -20.00003 Z  " /> 
 </g> 
 </g> 
 <g> 
 <g transform="matrix(1.0,0.0,0.0,1.0,-14.22636,0.0)"> 
 <g fill="rgb(0.0%,0.0%,0.0%)"> 
 <text style="stroke:none" transform="scale(1,-1) translate(0.0,0)" text-anchor="middle"  font-size="10"> 
</text> 
</g> 
 </g> 
 </g> 
 </g> 
 </g> 
 <g> 
 <g fill="rgb(100.0%,100.0%,100.0%)"> 
 <g stroke="rgb(100.0%,100.0%,100.0%)"> 
 <g stroke-width="1.2pt"> 
 <g> 
 <g fill="rgb(100.0%,100.0%,100.0%)"> 
 <g stroke="rgb(100.0%,100.0%,100.0%)"> 
 <g stroke-width="1.2pt"> 
 <path d=" M  4.22635 -5.0 h  20.00003 v  10.0 h  -20.00003 Z  " /> 
 </g> 
 </g> 
 </g> 
 </g> 
 <g> 
 <g transform="matrix(1.0,0.0,0.0,1.0,14.22636,0.0)"> 
 <g fill="rgb(0.0%,0.0%,0.0%)"> 
 <text style="stroke:none" transform="scale(1,-1) translate(0.0,0)" text-anchor="middle"  font-size="10"> 
</text> 
</g> 
 </g> 
 </g> 
 </g> 
 </g> 
 </g> 
 </g> 
 <g> 
 <g> 
 <g transform="matrix(1.0,0.0,0.0,1.0,73.83043,33.12148)"> 
 <g fill="rgb(0.0%,0.0%,0.0%)"> 
 <text style="stroke:none" transform="scale(1,-1) translate(11.5278,0)" text-anchor="middle"  font-size="10"> 
Swap</text> 
</g> 
 </g> 
 </g> 
 </g> 
 <g> 
 <g fill="rgb(100.0%,100.0%,80.0003%)"> 
 <g> 
 <g fill="rgb(100.0%,100.0%,80.0003%)"> 
 <path d=" M  61.13184 6.38092 h  20.00003 v  10.0 h  -20.00003 Z  " /> 
 </g> 
 </g> 
 <g> 
 <g transform="matrix(1.0,0.0,0.0,1.0,71.13185,11.38092)"> 
 <g fill="rgb(0.0%,0.0%,0.0%)"> 
 <text style="stroke:none" transform="scale(1,-1) translate(0.0,0)" text-anchor="middle"  font-size="10"> 
</text> 
</g> 
 </g> 
 </g> 
 </g> 
 </g> 
 <g> 
 <g fill="rgb(39.99939%,39.99939%,100.0%)"> 
 <g> 
 <g fill="rgb(39.99939%,39.99939%,100.0%)"> 
 <path d=" M  61.13184 -16.38092 h  20.00003 v  10.0 h  -20.00003 Z  " /> 
 </g> 
 </g> 
 <g> 
 <g transform="matrix(1.0,0.0,0.0,1.0,71.13185,-11.38092)"> 
 <g fill="rgb(0.0%,0.0%,0.0%)"> 
 <text style="stroke:none" transform="scale(1,-1) translate(0.0,0)" text-anchor="middle"  font-size="10"> 
</text> 
</g> 
 </g> 
 </g> 
 </g> 
 </g> 
 <g> 
 <g fill="rgb(39.99939%,39.99939%,100.0%)"> 
 <g> 
 <g fill="rgb(39.99939%,39.99939%,100.0%)"> 
 <path d=" M  89.58458 6.38092 h  20.00003 v  10.0 h  -20.00003 Z  " /> 
 </g> 
 </g> 
 <g> 
 <g transform="matrix(1.0,0.0,0.0,1.0,99.5846,11.38092)"> 
 <g fill="rgb(0.0%,0.0%,0.0%)"> 
 <text style="stroke:none" transform="scale(1,-1) translate(0.0,0)" text-anchor="middle"  font-size="10"> 
</text> 
</g> 
 </g> 
 </g> 
 </g> 
 </g> 
 <g> 
 <g fill="rgb(100.0%,100.0%,80.0003%)"> 
 <g> 
 <g fill="rgb(100.0%,100.0%,80.0003%)"> 
 <path d=" M  89.58458 -16.38092 h  20.00003 v  10.0 h  -20.00003 Z  " /> 
 </g> 
 </g> 
 <g> 
 <g transform="matrix(1.0,0.0,0.0,1.0,99.5846,-11.38092)"> 
 <g fill="rgb(0.0%,0.0%,0.0%)"> 
 <text style="stroke:none" transform="scale(1,-1) translate(0.0,0)" text-anchor="middle"  font-size="10"> 
</text> 
</g> 
 </g> 
 </g> 
 </g> 
 </g> 
 <g> 
 <g stroke-width="0.8pt"> 
 <path d=" M  -89.38458 11.38092 L  -81.49504 -22.07034  " style="fill:none"/> 
 <g> 
 <g transform="matrix(0.22983,-0.97455,0.97455,0.22983,-81.49504,-22.07034)"> 
 <g> 
 <g stroke-width="0.64pt"> 
 <g stroke-dasharray="none" stroke-dashoffset="0.0pt"> 
 <g stroke-linecap="round"> 
 <g stroke-linejoin="round"> 
 <path d=" M  -1.55997 2.07996 C  -1.42996 1.29997 0.0 0.12999 0.38998 0.0 C  0.0 -0.12999 -1.42996 -1.29997 -1.55997 -2.07996  " style="fill:none"/> 
 </g> 
 </g> 
 </g> 
 </g> 
 </g> 
 </g> 
 </g> 
 </g> 
 </g> 
 <g> 
 <g stroke-width="0.8pt"> 
 <path d=" M  -4.02635 0.0 L  2.91635 0.0  " style="fill:none"/> 
 <g> 
 <g transform="matrix(1.0,0.0,0.0,1.0,2.91635,0.0)"> 
 <g> 
 <g stroke-width="0.64pt"> 
 <g stroke-dasharray="none" stroke-dashoffset="0.0pt"> 
 <g stroke-linecap="round"> 
 <g stroke-linejoin="round"> 
 <path d=" M  -1.55997 2.07996 C  -1.42996 1.29997 0.0 0.12999 0.38998 0.0 C  0.0 -0.12999 -1.42996 -1.29997 -1.55997 -2.07996  " style="fill:none"/> 
 </g> 
 </g> 
 </g> 
 </g> 
 </g> 
 </g> 
 </g> 
 </g> 
 </g> 
 <g> 
 <g stroke-width="0.8pt"> 
 <path d=" M  81.33186 11.38092 L  89.1475 -10.71078  " style="fill:none"/> 
 <g> 
 <g transform="matrix(0.33392,-0.94385,0.94385,0.33392,89.1475,-10.71078)"> 
 <g> 
 <g stroke-width="0.64pt"> 
 <g stroke-dasharray="none" stroke-dashoffset="0.0pt"> 
 <g stroke-linecap="round"> 
 <g stroke-linejoin="round"> 
 <path d=" M  -1.55997 2.07996 C  -1.42996 1.29997 0.0 0.12999 0.38998 0.0 C  0.0 -0.12999 -1.42996 -1.29997 -1.55997 -2.07996  " style="fill:none"/> 
 </g> 
 </g> 
 </g> 
 </g> 
 </g> 
 </g> 
 </g> 
 </g> 
 </g> 
 <g> 
 <g stroke-width="0.8pt"> 
 <path d=" M  81.33186 -11.38092 L  89.1475 10.71078  " style="fill:none"/> 
 <g> 
 <g transform="matrix(0.33392,0.94385,-0.94385,0.33392,89.1475,10.71078)"> 
 <g> 
 <g stroke-width="0.64pt"> 
 <g stroke-dasharray="none" stroke-dashoffset="0.0pt"> 
 <g stroke-linecap="round"> 
 <g stroke-linejoin="round"> 
 <path d=" M  -1.55997 2.07996 C  -1.42996 1.29997 0.0 0.12999 0.38998 0.0 C  0.0 -0.12999 -1.42996 -1.29997 -1.55997 -2.07996  " style="fill:none"/> 
 </g> 
 </g> 
 </g> 
 </g> 
 </g> 
 </g> 
 </g> 
 </g> 
 </g> 
 <g> 
 <g fill="rgb(60.00061%,100.0%,60.00061%)"> 
 <g> 
 <g fill="rgb(60.00061%,100.0%,60.00061%)"> 
 <path d=" M  -52.67912 -113.1205 h  20.00003 v  10.0 h  -20.00003 Z  " /> 
 </g> 
 </g> 
 <g> 
 <g transform="matrix(1.0,0.0,0.0,1.0,-42.67911,-108.1205)"> 
 <g fill="rgb(0.0%,0.0%,0.0%)"> 
 <text style="stroke:none" transform="scale(1,-1) translate(0.0,0)" text-anchor="middle"  font-size="10"> 
</text> 
</g> 
 </g> 
 </g> 
 </g> 
 </g> 
 <g> 
 <g fill="rgb(60.00061%,100.0%,60.00061%)"> 
 <g> 
 <g fill="rgb(60.00061%,100.0%,60.00061%)"> 
 <path d=" M  -52.67912 -101.73915 h  20.00003 v  10.0 h  -20.00003 Z  " /> 
 </g> 
 </g> 
 <g> 
 <g transform="matrix(1.0,0.0,0.0,1.0,-42.67911,-96.73915)"> 
 <g fill="rgb(0.0%,0.0%,0.0%)"> 
 <text style="stroke:none" transform="scale(1,-1) translate(0.0,0)" text-anchor="middle"  font-size="10"> 
</text> 
</g> 
 </g> 
 </g> 
 </g> 
 </g> 
 <g> 
 <g fill="rgb(60.00061%,100.0%,60.00061%)"> 
 <g> 
 <g fill="rgb(60.00061%,100.0%,60.00061%)"> 
 <path d=" M  -52.67912 -90.35823 h  20.00003 v  10.0 h  -20.00003 Z  " /> 
 </g> 
 </g> 
 <g> 
 <g transform="matrix(1.0,0.0,0.0,1.0,-42.67911,-85.35823)"> 
 <g fill="rgb(0.0%,0.0%,0.0%)"> 
 <text style="stroke:none" transform="scale(1,-1) translate(0.0,0)" text-anchor="middle"  font-size="10"> 
</text> 
</g> 
 </g> 
 </g> 
 </g> 
 </g> 
 <g> 
 <g fill="rgb(60.00061%,100.0%,60.00061%)"> 
 <g> 
 <g fill="rgb(60.00061%,100.0%,60.00061%)"> 
 <path d=" M  -52.67912 -78.9773 h  20.00003 v  10.0 h  -20.00003 Z  " /> 
 </g> 
 </g> 
 <g> 
 <g transform="matrix(1.0,0.0,0.0,1.0,-42.67911,-73.9773)"> 
 <g fill="rgb(0.0%,0.0%,0.0%)"> 
 <text style="stroke:none" transform="scale(1,-1) translate(0.0,0)" text-anchor="middle"  font-size="10"> 
</text> 
</g> 
 </g> 
 </g> 
 </g> 
 </g> 
 <g> 
 <g fill="rgb(60.00061%,100.0%,60.00061%)"> 
 <g> 
 <g fill="rgb(60.00061%,100.0%,60.00061%)"> 
 <path d=" M  -52.67912 -67.59595 h  20.00003 v  10.0 h  -20.00003 Z  " /> 
 </g> 
 </g> 
 <g> 
 <g transform="matrix(1.0,0.0,0.0,1.0,-42.67911,-62.59595)"> 
 <g fill="rgb(0.0%,0.0%,0.0%)"> 
 <text style="stroke:none" transform="scale(1,-1) translate(0.0,0)" text-anchor="middle"  font-size="10"> 
</text> 
</g> 
 </g> 
 </g> 
 </g> 
 </g> 
 <g> 
 <g fill="rgb(60.00061%,100.0%,60.00061%)"> 
 <g> 
 <g fill="rgb(60.00061%,100.0%,60.00061%)"> 
 <path d=" M  32.6791 -113.1205 h  20.00003 v  10.0 h  -20.00003 Z  " /> 
 </g> 
 </g> 
 <g> 
 <g transform="matrix(1.0,0.0,0.0,1.0,42.67911,-108.1205)"> 
 <g fill="rgb(0.0%,0.0%,0.0%)"> 
 <text style="stroke:none" transform="scale(1,-1) translate(0.0,0)" text-anchor="middle"  font-size="10"> 
</text> 
</g> 
 </g> 
 </g> 
 </g> 
 </g> 
 <g> 
 <g fill="rgb(60.00061%,100.0%,60.00061%)"> 
 <g> 
 <g fill="rgb(60.00061%,100.0%,60.00061%)"> 
 <path d=" M  32.6791 -101.73915 h  20.00003 v  10.0 h  -20.00003 Z  " /> 
 </g> 
 </g> 
 <g> 
 <g transform="matrix(1.0,0.0,0.0,1.0,42.67911,-96.73915)"> 
 <g fill="rgb(0.0%,0.0%,0.0%)"> 
 <text style="stroke:none" transform="scale(1,-1) translate(0.0,0)" text-anchor="middle"  font-size="10"> 
</text> 
</g> 
 </g> 
 </g> 
 </g> 
 </g> 
 <g> 
 <g fill="rgb(60.00061%,100.0%,60.00061%)"> 
 <g> 
 <g fill="rgb(60.00061%,100.0%,60.00061%)"> 
 <path d=" M  32.6791 -90.35823 h  20.00003 v  10.0 h  -20.00003 Z  " /> 
 </g> 
 </g> 
 <g> 
 <g transform="matrix(1.0,0.0,0.0,1.0,42.67911,-85.35823)"> 
 <g fill="rgb(0.0%,0.0%,0.0%)"> 
 <text style="stroke:none" transform="scale(1,-1) translate(0.0,0)" text-anchor="middle"  font-size="10"> 
</text> 
</g> 
 </g> 
 </g> 
 </g> 
 </g> 
 <g> 
 <g fill="rgb(60.00061%,100.0%,60.00061%)"> 
 <g> 
 <g fill="rgb(60.00061%,100.0%,60.00061%)"> 
 <path d=" M  32.6791 -78.9773 h  20.00003 v  10.0 h  -20.00003 Z  " /> 
 </g> 
 </g> 
 <g> 
 <g transform="matrix(1.0,0.0,0.0,1.0,42.67911,-73.9773)"> 
 <g fill="rgb(0.0%,0.0%,0.0%)"> 
 <text style="stroke:none" transform="scale(1,-1) translate(0.0,0)" text-anchor="middle"  font-size="10"> 
</text> 
</g> 
 </g> 
 </g> 
 </g> 
 </g> 
 <g> 
 <g fill="rgb(60.00061%,100.0%,60.00061%)"> 
 <g> 
 <g fill="rgb(60.00061%,100.0%,60.00061%)"> 
 <path d=" M  32.6791 -67.59595 h  20.00003 v  10.0 h  -20.00003 Z  " /> 
 </g> 
 </g> 
 <g> 
 <g transform="matrix(1.0,0.0,0.0,1.0,42.67911,-62.59595)"> 
 <g fill="rgb(0.0%,0.0%,0.0%)"> 
 <text style="stroke:none" transform="scale(1,-1) translate(0.0,0)" text-anchor="middle"  font-size="10"> 
</text> 
</g> 
 </g> 
 </g> 
 </g> 
 </g> 
 <g> 
 <g fill="rgb(39.99939%,39.99939%,100.0%)"> 
 <g> 
 <g fill="rgb(39.99939%,39.99939%,100.0%)"> 
 <path d=" M  -24.22638 -101.73915 h  20.00003 v  10.0 h  -20.00003 Z  " /> 
 </g> 
 </g> 
 <g> 
 <g transform="matrix(1.0,0.0,0.0,1.0,-14.22636,-96.73915)"> 
 <g fill="rgb(0.0%,0.0%,0.0%)"> 
 <text style="stroke:none" transform="scale(1,-1) translate(0.0,0)" text-anchor="middle"  font-size="10"> 
</text> 
</g> 
 </g> 
 </g> 
 </g> 
 </g> 
 <g> 
 <g fill="rgb(39.99939%,39.99939%,100.0%)"> 
 <g> 
 <g fill="rgb(39.99939%,39.99939%,100.0%)"> 
 <path d=" M  -24.22638 -90.35823 h  20.00003 v  10.0 h  -20.00003 Z  " /> 
 </g> 
 </g> 
 <g> 
 <g transform="matrix(1.0,0.0,0.0,1.0,-14.22636,-85.35823)"> 
 <g fill="rgb(0.0%,0.0%,0.0%)"> 
 <text style="stroke:none" transform="scale(1,-1) translate(0.0,0)" text-anchor="middle"  font-size="10"> 
</text> 
</g> 
 </g> 
 </g> 
 </g> 
 </g> 
 <g> 
 <g fill="rgb(39.99939%,39.99939%,100.0%)"> 
 <g> 
 <g fill="rgb(39.99939%,39.99939%,100.0%)"> 
 <path d=" M  -24.22638 -78.9773 h  20.00003 v  10.0 h  -20.00003 Z  " /> 
 </g> 
 </g> 
 <g> 
 <g transform="matrix(1.0,0.0,0.0,1.0,-14.22636,-73.9773)"> 
 <g fill="rgb(0.0%,0.0%,0.0%)"> 
 <text style="stroke:none" transform="scale(1,-1) translate(0.0,0)" text-anchor="middle"  font-size="10"> 
</text> 
</g> 
 </g> 
 </g> 
 </g> 
 </g> 
 <g> 
 <g fill="rgb(39.99939%,39.99939%,100.0%)"> 
 <g> 
 <g fill="rgb(39.99939%,39.99939%,100.0%)"> 
 <path d=" M  -24.22638 -67.59595 h  20.00003 v  10.0 h  -20.00003 Z  " /> 
 </g> 
 </g> 
 <g> 
 <g transform="matrix(1.0,0.0,0.0,1.0,-14.22636,-62.59595)"> 
 <g fill="rgb(0.0%,0.0%,0.0%)"> 
 <text style="stroke:none" transform="scale(1,-1) translate(0.0,0)" text-anchor="middle"  font-size="10"> 
</text> 
</g> 
 </g> 
 </g> 
 </g> 
 </g> 
 <g> 
 <g> 
 <g transform="matrix(1.0,0.0,0.0,1.0,-45.70839,-51.78622)"> 
 <g fill="rgb(0.0%,0.0%,0.0%)"> 
 <text style="stroke:none" transform="scale(1,-1) translate(45.70839,0)" text-anchor="middle"  font-size="10"> 
Two Point Crossover</text> 
</g> 
 </g> 
 </g> 
 </g> 
 <g> 
 <g stroke-width="0.8pt"> 
 <path d=" M  -56.90549 -68.2864 L  56.19548 -68.2864  " style="fill:none"/> 
 <g> 
 <g transform="matrix(1.0,0.0,0.0,1.0,56.19548,-68.2864)"> 
 <g> 
 <g stroke-width="0.64pt"> 
 <g stroke-dasharray="none" stroke-dashoffset="0.0pt"> 
 <g stroke-linecap="round"> 
 <g stroke-linejoin="round"> 
 <path d=" M  -1.55997 2.07996 C  -1.42996 1.29997 0.0 0.12999 0.38998 0.0 C  0.0 -0.12999 -1.42996 -1.29997 -1.55997 -2.07996  " style="fill:none"/> 
 </g> 
 </g> 
 </g> 
 </g> 
 </g> 
 </g> 
 </g> 
 </g> 
 </g> 
 <g> 
 <g stroke-width="0.8pt"> 
 <path d=" M  -56.90549 -91.04869 L  56.19548 -91.04869  " style="fill:none"/> 
 <g> 
 <g transform="matrix(1.0,0.0,0.0,1.0,56.19548,-91.04869)"> 
 <g> 
 <g stroke-width="0.64pt"> 
 <g stroke-dasharray="none" stroke-dashoffset="0.0pt"> 
 <g stroke-linecap="round"> 
 <g stroke-linejoin="round"> 
 <path d=" M  -1.55997 2.07996 C  -1.42996 1.29997 0.0 0.12999 0.38998 0.0 C  0.0 -0.12999 -1.42996 -1.29997 -1.55997 -2.07996  " style="fill:none"/> 
 </g> 
 </g> 
 </g> 
 </g> 
 </g> 
 </g> 
 </g> 
 </g> 
 </g> 
 <g> 
 <g fill="rgb(39.99939%,39.99939%,100.0%)"> 
 <g> 
 <g fill="rgb(39.99939%,39.99939%,100.0%)"> 
 <path d=" M  32.6791 -78.9773 h  20.00003 v  10.0 h  -20.00003 Z  " /> 
 </g> 
 </g> 
 <g> 
 <g transform="matrix(1.0,0.0,0.0,1.0,42.67911,-73.9773)"> 
 <g fill="rgb(0.0%,0.0%,0.0%)"> 
 <text style="stroke:none" transform="scale(1,-1) translate(0.0,0)" text-anchor="middle"  font-size="10"> 
</text> 
</g> 
 </g> 
 </g> 
 </g> 
 </g> 
 <g> 
 <g fill="rgb(39.99939%,39.99939%,100.0%)"> 
 <g> 
 <g fill="rgb(39.99939%,39.99939%,100.0%)"> 
 <path d=" M  32.6791 -90.35823 h  20.00003 v  10.0 h  -20.00003 Z  " /> 
 </g> 
 </g> 
 <g> 
 <g transform="matrix(1.0,0.0,0.0,1.0,42.67911,-85.35823)"> 
 <g fill="rgb(0.0%,0.0%,0.0%)"> 
 <text style="stroke:none" transform="scale(1,-1) translate(0.0,0)" text-anchor="middle"  font-size="10"> 
</text> 
</g> 
 </g> 
 </g> 
 </g> 
 </g> 
 </g> 
 </g> 
 </g> 
 </g> 
 </g> 
 
                                                                  </g> 
</svg> 
